<svg width="20" height="20" viewBox="0 0 24 24" xmlns="http://www.w3.org/2000/svg"
    class="w-5 h-5 pointer-events-none">
    <path
        d="M14.47 6.22a.75.75 0 01.976-.073l.084.073 5.254 5.25a.75.75 0 01.073.976l-.073.084-5.254 5.25a.75.75 0 01-1.133-.975l.073-.085L19.193 12 14.47 7.28a.75.75 0 01-.073-.976l.073-.084zM9.534 17.78a.75.75 0 01-.976.073l-.085-.073-5.253-5.25a.75.75 0 01-.073-.976l.073-.084 5.253-5.25a.75.75 0 011.134.975l-.073.085L4.811 12l4.723 4.72a.75.75 0 01.073.976l-.073.084z"
        fill="#a8b3cf" fill-rule="evenodd"></path>
</svg>